<svg width="398" height="310" viewBox="0 0 398 310" fill="none" xmlns="http://www.w3.org/2000/svg">
<rect width="397.38" height="309.91" fill="white"/>
<rect x="0.5" y="0.5" width="396.38" height="308.91" stroke="#1B2A4A" stroke-opacity="0.14"/>
<g clip-path="url(#clip0_140_73)">
<path opacity="0.35" d="M136.576 220.175H260.794" stroke="#1B2A4A" stroke-width="0.414062"/>
<path d="M149.229 238.294C148.672 238.294 148.235 238.205 147.919 238.028C147.609 237.858 147.393 237.591 147.269 237.228C147.146 236.857 147.084 236.381 147.084 235.802V231.338L144.185 237.773H143.954L140.939 231.222V237.773H140.475V230.121H141.577L144.359 236.15L147.084 230.121H148.127V235.802C148.127 236.505 148.216 237.058 148.394 237.46C148.572 237.862 148.85 238.062 149.229 238.062V238.294ZM152.997 237.889V237.541C153.229 237.541 153.461 237.518 153.693 237.471C153.925 237.417 154.133 237.328 154.319 237.205C154.504 237.081 154.643 236.903 154.736 236.671L154.852 236.381L152.707 231.628C152.615 231.411 152.514 231.211 152.406 231.025C152.298 230.84 152.147 230.685 151.954 230.561C151.76 230.438 151.49 230.368 151.142 230.353V230.121H152.533C152.781 230.121 152.989 230.182 153.159 230.306C153.337 230.43 153.484 230.588 153.6 230.782C153.724 230.975 153.832 231.18 153.925 231.396L155.49 234.874L157.577 230.121H158.272L155.42 236.671C155.258 237.05 155.026 237.347 154.725 237.564C154.423 237.781 154.041 237.889 153.577 237.889H152.997ZM163.71 238.005C163.13 238.005 162.608 237.9 162.145 237.691C161.681 237.483 161.275 237.104 160.927 236.555L161.159 236.381C161.337 236.613 161.538 236.818 161.762 236.996C161.986 237.166 162.245 237.301 162.539 237.402C162.832 237.494 163.165 237.541 163.536 237.541C164.146 237.541 164.637 237.394 165.008 237.1C165.379 236.807 165.565 236.393 165.565 235.86C165.565 235.303 165.379 234.874 165.008 234.573C164.637 234.271 164.088 234.121 163.362 234.121H162.492V233.657H163.362C163.71 233.657 164.034 233.595 164.336 233.471C164.637 233.34 164.877 233.15 165.055 232.903C165.24 232.648 165.333 232.339 165.333 231.976C165.333 231.605 165.248 231.3 165.078 231.06C164.908 230.82 164.691 230.642 164.429 230.527C164.166 230.411 163.887 230.353 163.594 230.353C163.037 230.353 162.566 230.519 162.179 230.851C161.8 231.176 161.538 231.628 161.391 232.208H161.159C161.159 231.86 161.171 231.566 161.194 231.327C161.217 231.087 161.302 230.878 161.449 230.7C161.588 230.53 161.777 230.387 162.017 230.271C162.264 230.148 162.531 230.055 162.817 229.993C163.111 229.924 163.389 229.889 163.652 229.889C163.945 229.889 164.25 229.916 164.568 229.97C164.892 230.016 165.194 230.117 165.472 230.271C165.758 230.418 165.99 230.635 166.168 230.921C166.345 231.199 166.434 231.57 166.434 232.034C166.434 232.281 166.376 232.521 166.26 232.753C166.144 232.984 165.966 233.193 165.727 233.379C165.487 233.556 165.182 233.707 164.811 233.831C165.298 233.924 165.681 234.063 165.959 234.248C166.237 234.434 166.434 234.658 166.55 234.921C166.666 235.184 166.724 235.477 166.724 235.802C166.724 236.25 166.627 236.617 166.434 236.903C166.249 237.189 166.001 237.413 165.692 237.576C165.391 237.738 165.062 237.85 164.707 237.912C164.359 237.973 164.026 238.005 163.71 238.005ZM170.49 237.773V231.512C170.49 231.164 170.44 230.886 170.34 230.677C170.247 230.461 170.027 230.353 169.679 230.353H169.447V230.121H174.386C174.657 230.121 174.861 230.167 175 230.26C175.139 230.345 175.236 230.461 175.29 230.608C175.344 230.747 175.371 230.894 175.371 231.048V231.918H175.139C175.139 231.454 175.012 231.118 174.757 230.909C174.51 230.693 174.154 230.585 173.69 230.585H171.534V233.599H174.664V234.063H171.534V237.309H173.563C174.089 237.309 174.502 237.212 174.803 237.019C175.113 236.826 175.356 236.497 175.534 236.034L175.766 236.092L175.36 237.193C175.298 237.371 175.194 237.514 175.047 237.622C174.908 237.723 174.722 237.773 174.49 237.773H170.49ZM179.399 237.773V231.512C179.399 231.164 179.349 230.886 179.249 230.677C179.156 230.461 178.936 230.353 178.588 230.353H178.356V230.121H179.399C179.67 230.121 179.878 230.156 180.025 230.225C180.18 230.295 180.288 230.43 180.35 230.631C180.412 230.832 180.443 231.126 180.443 231.512V236.729L184.153 230.121H185.196V237.773H184.153V231.164L180.443 237.773H179.399ZM182.298 229.541C181.919 229.541 181.61 229.448 181.37 229.263C181.131 229.077 180.938 228.822 180.791 228.498L181.022 228.324C181.138 228.471 181.297 228.594 181.498 228.695C181.707 228.795 181.973 228.845 182.298 228.845C182.622 228.845 182.885 228.795 183.086 228.695C183.295 228.594 183.457 228.471 183.573 228.324L183.805 228.498C183.658 228.822 183.465 229.077 183.225 229.263C182.986 229.448 182.677 229.541 182.298 229.541ZM194.466 237.773V231.512C194.466 231.164 194.415 230.886 194.315 230.677C194.222 230.461 194.002 230.353 193.654 230.353H193.422V230.121H194.466C194.736 230.121 194.945 230.156 195.092 230.225C195.246 230.295 195.354 230.43 195.417 230.631C195.478 230.832 195.509 231.126 195.509 231.512V236.729L199.219 230.121H200.263V237.773H199.219V231.164L195.509 237.773H194.466ZM207.439 238.005C206.704 238.005 206.067 237.831 205.526 237.483C204.993 237.127 204.579 236.652 204.285 236.057C203.991 235.454 203.845 234.789 203.845 234.063C203.845 233.483 203.938 232.942 204.123 232.44C204.309 231.929 204.567 231.485 204.9 231.106C205.232 230.727 205.614 230.43 206.048 230.214C206.48 229.997 206.944 229.889 207.439 229.889C208.08 229.889 208.633 229.982 209.097 230.167C209.561 230.345 209.897 230.561 210.105 230.816C210.252 230.994 210.337 231.242 210.36 231.558C210.384 231.875 210.395 232.208 210.395 232.555H210.163C210.016 231.798 209.742 231.242 209.34 230.886C208.946 230.53 208.428 230.353 207.787 230.353C207.284 230.353 206.82 230.469 206.395 230.7C205.97 230.932 205.63 231.319 205.375 231.86C205.128 232.401 205.004 233.135 205.004 234.063C205.004 234.495 205.054 234.921 205.155 235.338C205.263 235.747 205.429 236.118 205.653 236.451C205.877 236.783 206.164 237.05 206.511 237.251C206.867 237.444 207.292 237.541 207.787 237.541C208.366 237.541 208.865 237.402 209.282 237.123C209.7 236.845 210.071 236.443 210.395 235.918L210.627 236.092C210.256 236.818 209.804 237.32 209.271 237.599C208.737 237.869 208.127 238.005 207.439 238.005ZM216.083 237.773V230.585H215.04C214.576 230.585 214.217 230.693 213.962 230.909C213.714 231.118 213.591 231.454 213.591 231.918H213.359V231.048C213.359 230.894 213.386 230.747 213.44 230.608C213.494 230.461 213.591 230.345 213.73 230.26C213.876 230.167 214.081 230.121 214.344 230.121H219.735V230.585H217.127V237.773H216.083ZM225.596 238.005C224.862 238.005 224.225 237.827 223.683 237.471C223.15 237.108 222.737 236.621 222.443 236.01C222.149 235.392 222.002 234.704 222.002 233.947C222.002 233.189 222.149 232.505 222.443 231.895C222.737 231.276 223.15 230.789 223.683 230.434C224.225 230.071 224.862 229.889 225.596 229.889C226.331 229.889 226.964 230.071 227.498 230.434C228.039 230.789 228.456 231.276 228.75 231.895C229.044 232.505 229.19 233.189 229.19 233.947C229.19 234.704 229.044 235.392 228.75 236.01C228.456 236.621 228.039 237.108 227.498 237.471C226.964 237.827 226.331 238.005 225.596 238.005ZM225.596 237.541C226.106 237.541 226.543 237.394 226.906 237.1C227.27 236.807 227.548 236.393 227.741 235.86C227.935 235.318 228.031 234.681 228.031 233.947C228.031 233.213 227.935 232.579 227.741 232.045C227.548 231.504 227.27 231.087 226.906 230.793C226.543 230.5 226.106 230.353 225.596 230.353C225.094 230.353 224.657 230.5 224.286 230.793C223.923 231.087 223.645 231.504 223.451 232.045C223.259 232.579 223.162 233.213 223.162 233.947C223.162 234.681 223.259 235.318 223.451 235.86C223.645 236.393 223.923 236.807 224.286 237.1C224.657 237.394 225.094 237.541 225.596 237.541ZM232.943 237.773V231.512C232.943 231.164 232.893 230.886 232.792 230.677C232.7 230.461 232.479 230.353 232.131 230.353H231.9V230.121H234.914C235.115 230.121 235.339 230.136 235.586 230.167C235.841 230.19 236.097 230.248 236.352 230.341C236.614 230.426 236.854 230.553 237.07 230.724C237.294 230.894 237.472 231.118 237.604 231.396C237.743 231.674 237.812 232.022 237.812 232.44C237.812 232.834 237.747 233.166 237.615 233.437C237.484 233.7 237.31 233.912 237.094 234.074C236.885 234.237 236.665 234.36 236.433 234.445C236.201 234.523 235.981 234.576 235.772 234.608C235.563 234.631 235.393 234.642 235.262 234.642H233.986V237.773H232.943ZM233.986 234.237H234.856C235.018 234.237 235.2 234.205 235.401 234.144C235.602 234.082 235.799 233.978 235.992 233.831C236.185 233.684 236.344 233.495 236.468 233.263C236.591 233.023 236.653 232.729 236.653 232.382C236.653 232.034 236.591 231.744 236.468 231.512C236.344 231.272 236.185 231.079 235.992 230.932C235.799 230.785 235.602 230.681 235.401 230.619C235.2 230.558 235.018 230.527 234.856 230.527C234.709 230.527 234.555 230.538 234.392 230.561C234.237 230.585 234.102 230.611 233.986 230.642V234.237ZM241.41 237.773V231.512C241.41 231.164 241.36 230.886 241.259 230.677C241.167 230.461 240.946 230.353 240.599 230.353H240.367V230.121H241.41C241.681 230.121 241.889 230.156 242.036 230.225C242.191 230.295 242.299 230.43 242.361 230.631C242.423 230.832 242.454 231.126 242.454 231.512V236.729L246.164 230.121H247.207V237.773H246.164V231.164L242.454 237.773H241.41ZM251.508 237.773V231.512C251.508 231.164 251.457 230.886 251.357 230.677C251.264 230.461 251.044 230.353 250.696 230.353H250.464V230.121H251.508C251.778 230.121 251.987 230.156 252.134 230.225C252.288 230.295 252.396 230.43 252.459 230.631C252.52 230.832 252.551 231.126 252.551 231.512V236.729L256.261 230.121H257.305V237.773H256.261V231.164L252.551 237.773H251.508ZM132.937 255.395C132.202 255.395 131.564 255.221 131.024 254.873C130.49 254.518 130.077 254.042 129.783 253.447C129.489 252.845 129.343 252.18 129.343 251.453C129.343 250.874 129.435 250.332 129.621 249.83C129.806 249.32 130.065 248.876 130.398 248.497C130.73 248.118 131.112 247.821 131.545 247.604C131.978 247.388 132.442 247.28 132.937 247.28C133.578 247.28 134.131 247.372 134.594 247.558C135.058 247.735 135.394 247.952 135.603 248.207C135.75 248.385 135.835 248.632 135.858 248.949C135.881 249.266 135.893 249.598 135.893 249.946H135.661C135.514 249.189 135.24 248.632 134.838 248.277C134.444 247.921 133.926 247.743 133.284 247.743C132.782 247.743 132.318 247.859 131.893 248.091C131.468 248.323 131.128 248.709 130.873 249.25C130.625 249.792 130.502 250.526 130.502 251.453C130.502 251.886 130.552 252.311 130.653 252.729C130.761 253.138 130.927 253.509 131.151 253.842C131.375 254.174 131.661 254.441 132.009 254.642C132.364 254.835 132.79 254.931 133.284 254.931C133.864 254.931 134.363 254.792 134.78 254.514C135.197 254.236 135.568 253.834 135.893 253.308L136.125 253.482C135.754 254.209 135.302 254.711 134.768 254.989C134.235 255.26 133.624 255.395 132.937 255.395ZM145.824 255.221C145.654 255.221 145.445 255.19 145.198 255.128C144.951 255.059 144.708 254.92 144.468 254.711C144.228 254.495 144.024 254.162 143.853 253.714L143.564 252.96H140.317L139.39 255.163H138.868L142.114 247.511H142.462L145.013 253.714C145.198 254.147 145.376 254.452 145.546 254.63C145.716 254.8 145.963 254.9 146.288 254.931V255.163C146.226 255.179 146.153 255.19 146.068 255.198C145.99 255.213 145.909 255.221 145.824 255.221ZM140.491 252.497H143.332L141.94 249.135L140.491 252.497ZM149.271 255.163V248.903C149.271 248.555 149.221 248.277 149.121 248.068C149.028 247.851 148.808 247.743 148.46 247.743H148.228V247.511H149.271C149.542 247.511 149.751 247.546 149.897 247.616C150.052 247.685 150.16 247.821 150.222 248.022C150.284 248.222 150.315 248.516 150.315 248.903V250.99H153.793V247.511H154.836V253.772C154.836 254.12 154.883 254.402 154.975 254.618C155.076 254.827 155.3 254.931 155.648 254.931H155.88V255.163H154.836C154.566 255.163 154.354 255.128 154.199 255.059C154.052 254.989 153.948 254.854 153.886 254.653C153.824 254.452 153.793 254.158 153.793 253.772V251.453H150.315V255.163H149.271ZM165.351 255.279C165.142 255.279 164.915 255.244 164.667 255.175C164.42 255.105 164.149 254.97 163.855 254.769C163.562 254.568 163.229 254.274 162.858 253.888L160.424 251.337V255.163H159.38V248.903C159.38 248.555 159.33 248.277 159.23 248.068C159.137 247.851 158.917 247.743 158.569 247.743H158.337V247.511H159.38C159.651 247.511 159.86 247.546 160.006 247.616C160.161 247.685 160.269 247.821 160.331 248.022C160.393 248.222 160.424 248.516 160.424 248.903V251.163L162.858 248.729C163.052 248.535 163.241 248.346 163.426 248.161C163.612 247.975 163.813 247.821 164.029 247.697C164.254 247.573 164.52 247.511 164.829 247.511H165.409V247.801C165.092 247.801 164.81 247.859 164.563 247.975C164.323 248.083 164.045 248.296 163.728 248.613L161.467 250.874L164.134 253.656C164.35 253.873 164.571 254.073 164.795 254.259C165.026 254.444 165.255 254.599 165.479 254.723C165.703 254.839 165.912 254.912 166.105 254.943V255.163C166.02 255.194 165.915 255.221 165.792 255.244C165.676 255.268 165.529 255.279 165.351 255.279ZM171.036 255.163V247.975H169.993C169.529 247.975 169.17 248.083 168.914 248.3C168.667 248.508 168.543 248.845 168.543 249.308H168.312V248.439C168.312 248.284 168.339 248.137 168.393 247.998C168.447 247.851 168.543 247.735 168.683 247.651C168.829 247.558 169.034 247.511 169.297 247.511H174.688V247.975H172.08V255.163H171.036ZM176.949 252.497V251.685H179.906V252.497H176.949ZM183.82 255.163V248.903C183.82 248.555 183.77 248.277 183.669 248.068C183.576 247.851 183.356 247.743 183.008 247.743H182.776V247.511H189.385V255.163H188.341V247.975H184.863V255.163H183.82ZM193.68 255.163V248.903C193.68 248.555 193.629 248.277 193.529 248.068C193.436 247.851 193.216 247.743 192.868 247.743H192.636V247.511H197.575C197.846 247.511 198.05 247.558 198.19 247.651C198.329 247.735 198.426 247.851 198.479 247.998C198.534 248.137 198.561 248.284 198.561 248.439V249.308H198.329C198.329 248.845 198.201 248.508 197.946 248.3C197.699 248.083 197.343 247.975 196.879 247.975H194.723V250.99H197.853V251.453H194.723V254.7H196.752C197.278 254.7 197.691 254.603 197.992 254.41C198.302 254.216 198.545 253.888 198.723 253.424L198.955 253.482L198.549 254.584C198.487 254.761 198.383 254.904 198.236 255.013C198.097 255.113 197.911 255.163 197.679 255.163H193.68ZM204.328 255.163V247.975H203.284C202.82 247.975 202.461 248.083 202.206 248.3C201.959 248.508 201.835 248.845 201.835 249.308H201.603V248.439C201.603 248.284 201.63 248.137 201.684 247.998C201.738 247.851 201.835 247.735 201.974 247.651C202.121 247.558 202.326 247.511 202.589 247.511H207.98V247.975H205.371V255.163H204.328ZM211.418 255.163V248.903C211.418 248.555 211.368 248.277 211.267 248.068C211.175 247.851 210.954 247.743 210.606 247.743H210.375V247.511H215.313C215.584 247.511 215.789 247.558 215.928 247.651C216.067 247.735 216.164 247.851 216.218 247.998C216.272 248.137 216.299 248.284 216.299 248.439V249.308H216.067C216.067 248.845 215.94 248.508 215.684 248.3C215.437 248.083 215.082 247.975 214.618 247.975H212.461V250.99H215.592V251.453H212.461V254.7H214.49C215.016 254.7 215.429 254.603 215.731 254.41C216.04 254.216 216.284 253.888 216.461 253.424L216.693 253.482L216.287 254.584C216.226 254.761 216.121 254.904 215.974 255.013C215.835 255.113 215.65 255.163 215.418 255.163H211.418ZM220.327 255.163V248.903C220.327 248.555 220.276 248.277 220.176 248.068C220.083 247.851 219.863 247.743 219.515 247.743H219.284V247.511H222.298C222.499 247.511 222.723 247.527 222.97 247.558C223.225 247.581 223.48 247.639 223.736 247.732C223.998 247.817 224.238 247.944 224.454 248.114C224.678 248.284 224.856 248.508 224.988 248.787C225.127 249.065 225.196 249.413 225.196 249.83C225.196 250.224 225.13 250.557 224.999 250.827C224.868 251.09 224.694 251.303 224.478 251.465C224.269 251.627 224.049 251.751 223.817 251.836C223.585 251.913 223.365 251.967 223.156 251.998C222.947 252.021 222.777 252.033 222.646 252.033H221.37V255.163H220.327ZM221.37 251.627H222.24C222.402 251.627 222.584 251.596 222.785 251.534C222.986 251.473 223.183 251.368 223.376 251.221C223.569 251.074 223.728 250.885 223.851 250.653C223.975 250.414 224.037 250.12 224.037 249.772C224.037 249.424 223.975 249.135 223.851 248.903C223.728 248.663 223.569 248.47 223.376 248.323C223.183 248.176 222.986 248.072 222.785 248.01C222.584 247.948 222.402 247.917 222.24 247.917C222.093 247.917 221.938 247.929 221.776 247.952C221.621 247.975 221.486 248.002 221.37 248.033V251.627ZM228.794 255.163V248.903C228.794 248.555 228.744 248.277 228.643 248.068C228.551 247.851 228.33 247.743 227.983 247.743H227.751V247.511H232.632C232.902 247.511 233.107 247.558 233.246 247.651C233.385 247.735 233.482 247.851 233.536 247.998C233.59 248.137 233.617 248.284 233.617 248.439V249.308H233.385C233.385 248.845 233.258 248.508 233.003 248.3C232.755 248.083 232.4 247.975 231.936 247.975H229.838V250.758H231.113C231.453 250.758 231.801 250.789 232.156 250.85C232.512 250.905 232.844 251.009 233.153 251.163C233.463 251.318 233.71 251.542 233.895 251.836C234.089 252.122 234.185 252.497 234.185 252.96C234.185 253.424 234.089 253.803 233.895 254.097C233.71 254.383 233.463 254.603 233.153 254.757C232.844 254.912 232.512 255.02 232.156 255.082C231.801 255.136 231.453 255.163 231.113 255.163H228.794ZM230.939 254.757C231.58 254.757 232.087 254.61 232.458 254.317C232.837 254.023 233.026 253.571 233.026 252.96C233.026 252.35 232.837 251.898 232.458 251.604C232.087 251.31 231.58 251.163 230.939 251.163C230.761 251.163 230.576 251.179 230.382 251.21C230.197 251.233 230.015 251.271 229.838 251.326V254.595C230.015 254.649 230.197 254.692 230.382 254.723C230.576 254.746 230.761 254.757 230.939 254.757ZM238.219 255.279V254.931C238.451 254.931 238.683 254.908 238.915 254.862C239.147 254.808 239.356 254.719 239.541 254.595C239.727 254.471 239.866 254.294 239.958 254.062L240.074 253.772L237.93 249.019C237.837 248.802 237.737 248.601 237.628 248.416C237.52 248.23 237.369 248.076 237.176 247.952C236.983 247.828 236.712 247.759 236.364 247.743V247.511H237.756C238.003 247.511 238.212 247.573 238.382 247.697C238.56 247.821 238.706 247.979 238.822 248.172C238.946 248.366 239.054 248.57 239.147 248.787L240.712 252.265L242.799 247.511H243.495L240.643 254.062C240.48 254.441 240.248 254.738 239.947 254.955C239.645 255.171 239.263 255.279 238.799 255.279H238.219ZM247.031 255.163V248.903C247.031 248.555 246.981 248.277 246.88 248.068C246.787 247.851 246.567 247.743 246.219 247.743H245.987V247.511H249.002C249.202 247.511 249.427 247.527 249.674 247.558C249.929 247.581 250.184 247.639 250.439 247.732C250.702 247.817 250.941 247.944 251.158 248.114C251.382 248.284 251.56 248.508 251.691 248.787C251.83 249.065 251.9 249.413 251.9 249.83C251.9 250.224 251.834 250.557 251.703 250.827C251.572 251.09 251.398 251.303 251.181 251.465C250.973 251.627 250.752 251.751 250.52 251.836C250.289 251.913 250.068 251.967 249.86 251.998C249.651 252.021 249.481 252.033 249.349 252.033H248.074V255.163H247.031ZM248.074 251.627H248.944C249.106 251.627 249.288 251.596 249.489 251.534C249.689 251.473 249.886 251.368 250.08 251.221C250.273 251.074 250.431 250.885 250.555 250.653C250.679 250.414 250.741 250.12 250.741 249.772C250.741 249.424 250.679 249.135 250.555 248.903C250.431 248.663 250.273 248.47 250.08 248.323C249.886 248.176 249.689 248.072 249.489 248.01C249.288 247.948 249.106 247.917 248.944 247.917C248.797 247.917 248.642 247.929 248.48 247.952C248.325 247.975 248.19 248.002 248.074 248.033V251.627ZM255.498 255.163V248.903C255.498 248.555 255.448 248.277 255.347 248.068C255.254 247.851 255.034 247.743 254.686 247.743H254.454V247.511H259.266C259.537 247.511 259.741 247.558 259.88 247.651C260.019 247.735 260.116 247.851 260.17 247.998C260.224 248.137 260.251 248.284 260.251 248.439V249.308H260.019C260.019 248.845 259.892 248.508 259.637 248.3C259.39 248.083 259.034 247.975 258.57 247.975H256.541V255.163H255.498ZM268.804 255.221C268.634 255.221 268.425 255.19 268.178 255.128C267.93 255.059 267.687 254.92 267.448 254.711C267.208 254.495 267.003 254.162 266.833 253.714L266.543 252.96H263.297L262.37 255.163H261.848L265.094 247.511H265.442L267.993 253.714C268.178 254.147 268.356 254.452 268.526 254.63C268.696 254.8 268.943 254.9 269.268 254.931V255.163C269.206 255.179 269.133 255.19 269.048 255.198C268.97 255.213 268.889 255.221 268.804 255.221ZM263.471 252.497H266.311L264.92 249.135L263.471 252.497Z" fill="#1B2A4A"/>
<path d="M170.032 81.8779L198.685 68.0068L227.338 81.8779L239.76 95.9975L265.556 95.6662L299.095 104.237L294.209 126.679L280.835 140.468L294.209 154.256L299.095 176.698L265.556 185.269L239.76 184.938L227.338 199.058L198.685 212.929L170.032 199.058L157.61 184.938L131.814 185.269L98.2749 176.698L103.161 154.256L116.535 140.468L103.161 126.679L98.2749 104.237L131.814 95.6662L157.61 95.9975L170.032 81.8779Z" stroke="#1B2A4A" stroke-width="2.07031"/>
<path d="M156.987 146.228C156.643 147.898 156.179 149.461 155.596 150.919C155.013 152.35 154.231 153.622 153.251 154.735C152.297 155.821 151.078 156.722 149.594 157.438C148.136 158.153 146.361 158.604 144.267 158.789C143.128 158.789 142.041 158.644 141.008 158.352C139.974 158.087 139.073 157.663 138.305 157.08C137.563 156.497 136.993 155.768 136.596 154.894C136.225 153.993 136.119 152.933 136.278 151.714C136.384 151.051 136.609 150.415 136.953 149.806C137.298 149.196 137.748 148.666 138.305 148.216C138.861 147.765 139.511 147.421 140.253 147.182C141.021 146.944 141.856 146.838 142.757 146.864C143.419 146.944 143.976 147.129 144.426 147.421C144.903 147.712 145.261 148.057 145.5 148.454C145.765 148.852 145.924 149.289 145.977 149.766C146.056 150.217 146.03 150.68 145.897 151.157C145.632 151.926 145.208 152.482 144.625 152.827C144.069 153.171 143.459 153.251 142.797 153.065C142.161 152.933 141.684 152.588 141.366 152.032C141.048 151.449 140.968 150.853 141.127 150.243C141.26 149.846 141.419 149.501 141.604 149.21C141.79 148.918 142.015 148.746 142.28 148.693C142.571 148.587 142.836 148.521 143.075 148.494C143.313 148.468 143.459 148.348 143.512 148.136C143.565 147.977 143.34 147.845 142.836 147.739C142.333 147.606 141.737 147.62 141.048 147.779C140.385 147.938 139.736 148.295 139.1 148.852C138.464 149.408 138.027 150.283 137.788 151.475C137.576 152.562 137.616 153.529 137.907 154.377C138.225 155.199 138.702 155.888 139.338 156.444C140.001 157.001 140.783 157.411 141.684 157.676C142.585 157.915 143.539 157.994 144.546 157.915C146.215 157.676 147.553 157.014 148.56 155.927C149.594 154.841 150.402 153.569 150.985 152.111C151.568 150.654 151.992 149.13 152.257 147.54C152.549 145.95 152.814 144.519 153.052 143.247C153.238 141.657 153.529 140.226 153.927 138.954C154.351 137.682 154.854 136.529 155.437 135.496C156.02 134.462 156.669 133.522 157.385 132.674C158.1 131.826 158.882 131.017 159.73 130.249C158.803 129.825 157.875 129.348 156.948 128.818C156.02 128.288 155.079 127.798 154.125 127.347C153.198 126.87 152.244 126.459 151.263 126.115C150.309 125.744 149.329 125.492 148.322 125.36C145.963 125.121 144.055 125.399 142.598 126.194C141.644 126.724 140.809 127.519 140.094 128.579C139.378 129.613 138.835 130.752 138.464 131.998C138.093 133.243 137.907 134.515 137.907 135.814C137.934 137.112 138.186 138.292 138.663 139.352C139.14 140.385 139.868 141.22 140.849 141.856C141.856 142.465 143.168 142.717 144.784 142.611C145.765 142.558 146.626 142.306 147.368 141.856C148.11 141.379 148.719 140.796 149.196 140.107C149.7 139.391 150.058 138.596 150.27 137.722C150.482 136.847 150.548 135.986 150.468 135.138C150.389 134.29 150.15 133.482 149.753 132.713C149.382 131.945 148.825 131.309 148.083 130.805C147.765 130.54 147.686 130.395 147.845 130.368C148.03 130.315 148.229 130.315 148.441 130.368C149.369 130.792 150.137 131.388 150.747 132.157C151.356 132.899 151.767 133.734 151.979 134.661C152.217 135.562 152.257 136.503 152.098 137.483C151.966 138.437 151.608 139.325 151.025 140.147C150.468 140.942 149.687 141.631 148.68 142.214C147.673 142.797 146.44 143.154 144.983 143.287C143.499 143.393 142.2 143.234 141.087 142.81C139.974 142.359 139.047 141.75 138.305 140.981C137.563 140.213 137.006 139.338 136.635 138.358C136.264 137.377 136.105 136.384 136.158 135.377C136.238 133.363 136.728 131.6 137.629 130.09C138.53 128.579 139.67 127.321 141.048 126.314C142.452 125.28 144.002 124.512 145.698 124.008C147.421 123.478 149.143 123.187 150.866 123.134C151.899 123.107 152.84 123.16 153.688 123.293C154.536 123.425 155.344 123.624 156.113 123.889C156.881 124.154 157.623 124.472 158.339 124.843C159.081 125.187 159.849 125.572 160.644 125.996C161.121 126.261 161.771 126.605 162.592 127.029C163.44 127.453 164.301 127.837 165.176 128.182C166.05 128.526 166.872 128.765 167.64 128.897C168.435 129.03 169.032 128.937 169.429 128.619C169.827 128.222 170.025 127.758 170.025 127.228C170.025 126.698 169.906 126.168 169.668 125.638C169.456 125.108 169.151 124.631 168.753 124.207C168.382 123.756 167.998 123.438 167.601 123.253C167.389 123.12 167.243 123.001 167.163 122.895C167.11 122.789 167.097 122.71 167.124 122.657C167.177 122.604 167.256 122.577 167.362 122.577C167.468 122.577 167.587 122.617 167.72 122.696C167.985 122.802 168.276 122.961 168.594 123.173C168.939 123.359 169.257 123.597 169.548 123.889C169.84 124.154 170.105 124.485 170.343 124.883C170.582 125.254 170.754 125.691 170.86 126.194C170.966 126.83 170.953 127.48 170.82 128.142C170.688 128.778 170.423 129.361 170.025 129.891C169.628 130.421 169.111 130.872 168.475 131.243C167.839 131.587 167.097 131.786 166.249 131.839C165.242 131.892 164.262 131.812 163.308 131.6C162.354 131.362 161.413 131.031 160.485 130.607C159.69 131.614 159.107 132.753 158.736 134.025C158.365 135.271 158.087 136.582 157.902 137.96C157.716 139.312 157.57 140.703 157.464 142.134C157.358 143.565 157.199 144.93 156.987 146.228ZM220.505 124.525C220.849 124.207 221.035 124.127 221.061 124.286C221.088 124.419 221.035 124.565 220.902 124.724C219.789 126.261 218.597 127.254 217.325 127.705C216.053 128.129 214.741 128.036 213.39 127.427C211.959 126.764 210.713 126.592 209.653 126.91C208.62 127.228 207.705 127.97 206.91 129.136C206.142 130.302 205.479 131.852 204.923 133.787C204.393 135.721 203.903 137.96 203.452 140.504C203.028 143.022 202.631 145.804 202.26 148.852C201.915 151.899 201.544 155.119 201.147 158.511C200.67 158.379 200.153 158.286 199.596 158.233C199.04 158.153 198.483 158.114 197.927 158.114C197.37 158.114 196.84 158.14 196.337 158.193C195.86 158.246 195.449 158.326 195.105 158.432C195.264 156.974 195.423 155.397 195.582 153.701C195.741 152.005 195.873 150.27 195.979 148.494C196.085 146.692 196.151 144.89 196.178 143.088C196.231 141.286 196.218 139.55 196.138 137.881C196.032 136.105 195.767 134.449 195.343 132.912C194.919 131.349 194.402 129.971 193.793 128.778C193.74 131.163 193.594 133.548 193.356 135.933C193.144 138.318 192.812 140.61 192.362 142.81C191.911 145.009 191.355 147.076 190.692 149.011C190.03 150.919 189.248 152.588 188.347 154.019C187.446 155.424 186.413 156.55 185.247 157.398C184.107 158.22 182.822 158.657 181.391 158.71C180.251 158.763 179.165 158.657 178.131 158.392C177.124 158.127 176.25 157.703 175.508 157.12C174.792 156.537 174.262 155.795 173.918 154.894C173.6 153.993 173.56 152.933 173.799 151.714C173.931 151.051 174.183 150.415 174.554 149.806C174.951 149.196 175.442 148.666 176.025 148.216C176.608 147.765 177.283 147.421 178.052 147.182C178.82 146.944 179.655 146.838 180.556 146.864C181.219 146.944 181.762 147.129 182.186 147.421C182.636 147.712 182.981 148.057 183.219 148.454C183.458 148.852 183.59 149.289 183.617 149.766C183.67 150.217 183.617 150.68 183.458 151.157C183.166 151.926 182.716 152.482 182.106 152.827C181.523 153.171 180.901 153.251 180.238 153.065C179.708 152.933 179.284 152.655 178.966 152.231C178.675 151.78 178.502 151.303 178.449 150.8C178.423 150.296 178.529 149.832 178.767 149.408C179.006 148.984 179.403 148.706 179.96 148.574C180.251 148.468 180.516 148.401 180.755 148.375C180.993 148.348 181.152 148.229 181.232 148.017C181.311 147.858 181.099 147.726 180.596 147.62C180.092 147.514 179.496 147.553 178.807 147.739C178.145 147.898 177.469 148.269 176.78 148.852C176.091 149.408 175.601 150.283 175.309 151.475C175.044 152.562 175.018 153.542 175.23 154.417C175.468 155.265 175.879 155.98 176.462 156.563C177.045 157.12 177.76 157.531 178.608 157.796C179.483 158.061 180.424 158.153 181.431 158.074C183.127 157.994 184.611 157.173 185.883 155.609C187.181 154.019 188.281 151.846 189.182 149.09C190.083 146.308 190.798 143.022 191.328 139.232C191.885 135.416 192.269 131.256 192.481 126.751C191.342 125.399 189.858 124.538 188.029 124.167C186.227 123.796 184.213 124.008 181.987 124.803C181.06 125.174 180.225 125.691 179.483 126.353C178.741 127.016 178.092 127.771 177.535 128.619C176.979 129.467 176.515 130.381 176.144 131.362C175.799 132.316 175.548 133.27 175.389 134.224C175.23 135.257 175.19 136.264 175.269 137.245C175.375 138.199 175.64 139.034 176.064 139.749C176.488 140.465 177.111 141.034 177.933 141.458C178.754 141.856 179.827 142.015 181.152 141.935C182.106 141.882 182.968 141.617 183.736 141.14C184.505 140.663 185.154 140.08 185.684 139.391C186.214 138.676 186.611 137.894 186.876 137.046C187.168 136.172 187.314 135.31 187.314 134.462C187.314 133.614 187.155 132.806 186.837 132.038C186.545 131.269 186.068 130.633 185.406 130.13C185.114 129.865 185.048 129.719 185.207 129.692C185.366 129.639 185.551 129.639 185.763 129.692C186.638 130.116 187.327 130.699 187.83 131.441C188.334 132.183 188.652 133.018 188.784 133.946C188.917 134.847 188.851 135.774 188.586 136.728C188.347 137.682 187.91 138.57 187.274 139.391C186.638 140.186 185.803 140.875 184.77 141.458C183.736 142.041 182.504 142.399 181.073 142.532C179.642 142.638 178.383 142.479 177.297 142.055C176.237 141.604 175.362 140.995 174.673 140.226C174.011 139.458 173.534 138.583 173.242 137.603C172.977 136.622 172.911 135.642 173.043 134.661C173.282 132.965 173.799 131.415 174.594 130.01C175.415 128.579 176.422 127.36 177.615 126.353C178.834 125.346 180.185 124.565 181.669 124.008C183.18 123.452 184.73 123.187 186.32 123.213C188.652 123.24 190.639 123.624 192.282 124.366C193.952 125.081 195.317 126.062 196.377 127.307C197.463 128.526 198.285 129.957 198.841 131.6C199.424 133.243 199.808 134.992 199.994 136.847C200.153 138.517 200.232 140.226 200.232 141.975C200.232 143.698 200.179 145.433 200.073 147.182C199.994 148.905 199.888 150.614 199.755 152.31C199.623 154.006 199.504 155.662 199.398 157.279L200.193 157.358C200.431 155.53 200.656 153.609 200.868 151.595C201.08 149.581 201.319 147.54 201.584 145.473C201.875 143.406 202.193 141.392 202.538 139.431C202.909 137.444 203.346 135.575 203.85 133.826C204.353 132.077 204.949 130.514 205.638 129.136C206.354 127.758 207.189 126.632 208.143 125.757C208.673 125.254 209.189 124.869 209.693 124.604C210.196 124.313 210.687 124.101 211.164 123.968C211.879 123.756 212.608 123.717 213.35 123.849C214.092 123.955 214.874 124.154 215.695 124.445C216.623 124.816 217.497 125.081 218.319 125.24C219.167 125.373 219.895 125.134 220.505 124.525ZM216.331 129.215C216.755 129.162 216.941 129.242 216.888 129.454C216.835 129.639 216.583 129.785 216.132 129.891C215.364 130.05 214.688 130.487 214.105 131.203C213.522 131.892 213.019 132.753 212.595 133.787C212.171 134.82 211.8 135.973 211.482 137.245C211.19 138.517 210.952 139.802 210.766 141.101C210.607 142.081 210.475 143.101 210.369 144.161C210.289 145.195 210.21 146.202 210.13 147.182C210.077 148.136 210.037 149.024 210.011 149.846C209.984 150.641 209.958 151.277 209.931 151.754C209.878 152.867 209.931 153.913 210.09 154.894C210.249 155.848 210.594 156.537 211.124 156.961C211.68 157.438 212.263 157.61 212.873 157.478C213.509 157.319 214.039 156.987 214.463 156.484C214.887 155.98 215.152 155.358 215.258 154.616C215.364 153.847 215.192 153.092 214.741 152.35C214.529 152.032 214.423 151.767 214.423 151.555C214.423 151.343 214.463 151.197 214.542 151.118C214.622 151.038 214.728 151.012 214.86 151.038C215.019 151.065 215.152 151.157 215.258 151.316C215.523 151.714 215.735 152.297 215.894 153.065C216.053 153.834 216.066 154.616 215.934 155.411C215.801 156.179 215.457 156.868 214.9 157.478C214.37 158.061 213.549 158.379 212.436 158.432C210.925 158.458 209.666 158.127 208.659 157.438C207.679 156.722 206.99 155.689 206.592 154.337C206.301 153.383 206.142 152.323 206.115 151.157C206.089 149.965 206.142 148.733 206.274 147.461C206.433 146.189 206.632 144.917 206.871 143.645C207.136 142.373 207.414 141.154 207.705 139.988C208.05 138.636 208.487 137.338 209.017 136.092C209.547 134.82 210.17 133.694 210.885 132.713C211.601 131.733 212.409 130.938 213.31 130.328C214.238 129.692 215.245 129.321 216.331 129.215ZM261.922 123.412C261.26 126.618 260.69 129.388 260.213 131.72C259.736 134.025 259.339 135.999 259.021 137.642C258.703 139.285 258.438 140.637 258.226 141.697C258.014 142.757 257.841 143.631 257.709 144.32C257.576 145.009 257.47 145.566 257.391 145.99C257.338 146.414 257.272 146.811 257.192 147.182C257.086 147.792 256.954 148.574 256.795 149.528C256.636 150.482 256.516 151.449 256.437 152.429C256.384 153.41 256.397 154.324 256.477 155.172C256.583 155.994 256.861 156.59 257.311 156.961C257.629 157.226 257.961 157.372 258.305 157.398C258.65 157.398 259.021 157.358 259.418 157.279C259.842 157.199 260.213 156.987 260.531 156.643C260.876 156.272 261.127 155.848 261.286 155.371C261.445 154.894 261.498 154.39 261.445 153.86C261.392 153.304 261.22 152.8 260.929 152.35C260.717 152.032 260.611 151.78 260.611 151.595C260.611 151.383 260.65 151.237 260.73 151.157C260.836 151.051 260.955 151.012 261.088 151.038C261.247 151.065 261.379 151.157 261.485 151.316C261.75 151.714 261.949 152.31 262.081 153.105C262.214 153.9 262.174 154.695 261.962 155.49C261.777 156.285 261.366 157.001 260.73 157.637C260.12 158.246 259.193 158.564 257.947 158.591C256.066 158.538 254.728 158.087 253.933 157.239C253.138 156.365 252.674 155.212 252.541 153.781C252.435 152.35 252.555 150.68 252.899 148.772C253.27 146.864 253.681 144.837 254.131 142.691C253.018 145.712 251.919 148.269 250.832 150.362C249.772 152.456 248.712 154.139 247.652 155.411C246.592 156.683 245.519 157.584 244.432 158.114C243.346 158.644 242.233 158.869 241.093 158.789C239.689 158.683 238.602 158.312 237.834 157.676C237.065 157.014 236.522 156.219 236.204 155.291C235.913 154.337 235.793 153.317 235.846 152.231C235.926 151.144 236.098 150.124 236.363 149.17C236.761 147.739 237.277 146.175 237.913 144.479C238.576 142.783 239.185 141.048 239.742 139.272C240.325 137.497 240.775 135.734 241.093 133.985C241.438 132.21 241.517 130.54 241.332 128.977C241.252 128.182 241.04 127.44 240.696 126.751C240.378 126.062 239.888 125.479 239.225 125.002C238.563 124.525 237.728 124.207 236.721 124.048C235.714 123.862 234.495 123.889 233.064 124.127C231.898 124.419 230.825 124.869 229.844 125.479C228.89 126.088 228.069 126.817 227.38 127.665C226.691 128.487 226.134 129.401 225.71 130.408C225.286 131.415 225.021 132.475 224.915 133.588C224.809 134.568 224.836 135.522 224.995 136.45C225.18 137.351 225.511 138.146 225.988 138.835C226.492 139.497 227.154 140.027 227.976 140.425C228.797 140.796 229.831 140.942 231.076 140.862C231.977 140.809 232.772 140.571 233.461 140.147C234.177 139.696 234.76 139.14 235.21 138.477C235.687 137.788 236.045 137.046 236.284 136.251C236.522 135.43 236.615 134.621 236.562 133.826C236.535 133.005 236.35 132.236 236.005 131.521C235.687 130.779 235.21 130.169 234.574 129.692C234.442 129.586 234.362 129.494 234.336 129.414C234.309 129.335 234.323 129.282 234.376 129.255C234.455 129.229 234.535 129.229 234.614 129.255C234.72 129.255 234.826 129.268 234.932 129.295C235.78 129.692 236.456 130.249 236.959 130.964C237.463 131.68 237.794 132.475 237.953 133.349C238.112 134.197 238.099 135.072 237.913 135.973C237.728 136.874 237.344 137.722 236.761 138.517C236.204 139.285 235.449 139.948 234.495 140.504C233.541 141.034 232.388 141.366 231.037 141.498C229.685 141.604 228.479 141.445 227.419 141.021C226.359 140.597 225.485 140.027 224.796 139.312C224.107 138.596 223.59 137.775 223.246 136.847C222.928 135.893 222.808 134.953 222.888 134.025C223.047 132.223 223.511 130.673 224.279 129.374C225.048 128.076 225.988 126.989 227.101 126.115C228.214 125.24 229.433 124.565 230.758 124.088C232.11 123.611 233.448 123.293 234.773 123.134C235.939 123.001 237.052 123.028 238.112 123.213C239.199 123.399 240.179 123.703 241.054 124.127C241.928 124.525 242.697 125.042 243.359 125.678C244.022 126.287 244.512 126.963 244.83 127.705C245.254 128.632 245.479 129.692 245.506 130.885C245.559 132.051 245.479 133.283 245.267 134.582C245.055 135.88 244.75 137.218 244.353 138.596C243.982 139.948 243.571 141.286 243.121 142.611C242.697 143.91 242.273 145.155 241.849 146.348C241.451 147.54 241.12 148.613 240.855 149.567C240.298 151.555 240.033 153.251 240.06 154.655C240.113 156.06 240.603 156.987 241.531 157.438C242.246 157.782 243.054 157.756 243.955 157.358C244.856 156.961 245.824 156.139 246.857 154.894C247.891 153.648 248.977 151.952 250.117 149.806C251.283 147.659 252.462 144.996 253.654 141.816C253.734 141.604 253.827 141.366 253.933 141.101C254.039 140.836 254.158 140.465 254.29 139.988C254.449 139.484 254.622 138.835 254.807 138.04C255.019 137.245 255.271 136.225 255.562 134.979C255.854 133.707 256.198 132.157 256.596 130.328C257.02 128.5 257.51 126.3 258.067 123.73C258.544 123.862 258.954 123.942 259.299 123.968C259.643 123.995 259.948 123.982 260.213 123.929C260.505 123.876 260.783 123.809 261.048 123.73C261.313 123.624 261.604 123.518 261.922 123.412Z" fill="#1B2A4A"/>
</g>
<defs>
<clipPath id="clip0_140_73">
<rect width="331.25" height="240.16" fill="white" transform="translate(33.0601 34.8799)"/>
</clipPath>
</defs>
</svg>
