<?xml version="1.0" encoding="UTF-8"?>
<svg id="_Слой_1" data-name="Слой_1" xmlns="http://www.w3.org/2000/svg" version="1.1" xmlns:xlink="http://www.w3.org/1999/xlink" viewBox="0 0 800 800">
  <!-- Generator: Adobe Illustrator 30.3.0, SVG Export Plug-In . SVG Version: 2.1.3 Build 182)  -->
  <defs>
    <style>
      .st0 {
        fill: #fff;
      }

      .st0, .st1, .st2 {
        stroke: #000;
        stroke-miterlimit: 10;
        stroke-width: 3px;
      }

      .st3, .st2 {
        fill: none;
      }

      .st1 {
        fill: url(#_Новый_узор_2);
      }
    </style>
    <pattern id="_Новый_узор_2" data-name="Новый узор 2" x="0" y="0" width="400" height="681.46" patternUnits="userSpaceOnUse" viewBox="0 0 400 681.46">
      <g>
        <rect class="st3" width="400" height="681.46"/>
        <g>
          <polyline class="st2" points="413.44 653.08 454.63 653.08 454.63 687.13 333.3 687.13 333.3 792.45"/>
          <polyline class="st2" points="277.75 639.8 277.75 565.45 355.41 565.45 355.41 653.08 388.85 653.08"/>
          <g>
            <polygon class="st0" points="314.09 663.19 262.65 687.13 211.21 663.19 262.65 639.8 314.09 663.19"/>
            <polygon class="st0" points="314.09 652.8 262.65 676.74 211.21 652.8 262.65 629.41 314.09 652.8"/>
            <polygon class="st0" points="314.09 642.78 262.65 666.71 211.21 642.78 262.65 619.39 314.09 642.78"/>
          </g>
          <circle class="st0" cx="400.98" cy="643.63" r="15.64"/>
          <circle class="st0" cx="323.32" cy="528.23" r="15.64"/>
          <polyline class="st2" points="338.96 528.23 485.91 528.23 485.91 543.87 512.07 543.87 512.07 593.62 485.91 593.62"/>
        </g>
        <g>
          <polyline class="st2" points="13.44 653.08 54.63 653.08 54.63 687.13 -66.7 687.13 -66.7 792.45"/>
          <g>
            <polygon class="st0" points="188.79 658.75 137.35 682.68 85.91 658.75 137.35 635.36 188.79 658.75"/>
            <polygon class="st0" points="188.79 648.36 137.35 672.29 85.91 648.36 137.35 624.97 188.79 648.36"/>
            <polygon class="st0" points="188.79 638.33 137.35 662.27 85.91 638.33 137.35 614.94 188.79 638.33"/>
          </g>
          <circle class="st0" cx=".98" cy="643.63" r="15.64"/>
          <circle class="st0" cx="70.27" cy="593.62" r="15.64"/>
          <polyline class="st2" points="-61.04 528.23 85.91 528.23 85.91 543.87 112.07 543.87 112.07 593.62 85.91 593.62"/>
        </g>
        <g>
          <polyline class="st2" points="213.44 312.35 254.63 312.35 254.63 346.4 133.3 346.4 133.3 451.72"/>
          <polyline class="st2" points="77.75 299.07 77.75 224.72 155.41 224.72 155.41 312.35 188.85 312.35"/>
          <g>
            <polygon class="st0" points="114.09 322.46 62.65 346.4 11.21 322.46 62.65 299.07 114.09 322.46"/>
            <polygon class="st0" points="114.09 312.08 62.65 336.01 11.21 312.08 62.65 288.69 114.09 312.08"/>
            <polygon class="st0" points="114.09 302.05 62.65 325.98 11.21 302.05 62.65 278.66 114.09 302.05"/>
          </g>
          <g>
            <polygon class="st0" points="174.75 485.5 123.32 509.44 71.88 485.5 123.32 462.11 174.75 485.5"/>
            <polygon class="st0" points="174.75 475.12 123.32 499.05 71.88 475.12 123.32 451.72 174.75 475.12"/>
            <polygon class="st0" points="174.75 465.09 123.32 489.02 71.88 465.09 123.32 441.7 174.75 465.09"/>
          </g>
          <g>
            <polygon class="st0" points="388.79 318.02 337.35 341.95 285.91 318.02 337.35 294.63 388.79 318.02"/>
            <polygon class="st0" points="388.79 307.63 337.35 331.57 285.91 307.63 337.35 284.24 388.79 307.63"/>
            <polygon class="st0" points="388.79 297.6 337.35 321.54 285.91 297.6 337.35 274.21 388.79 297.6"/>
          </g>
          <circle class="st0" cx="200.98" cy="302.9" r="15.64"/>
          <circle class="st0" cx="221.46" cy="426.06" r="15.64"/>
          <circle class="st0" cx="270.27" cy="252.9" r="15.64"/>
          <circle class="st0" cx="123.32" cy="187.5" r="15.64"/>
          <polyline class="st2" points="138.96 187.5 285.91 187.5 285.91 203.14 312.07 203.14 312.07 252.9 285.91 252.9"/>
          <polyline class="st2" points="337.35 341.95 337.35 394.05 272.9 394.05 272.9 368 170.16 368 170.16 427.63 205.82 427.63"/>
        </g>
        <g>
          <polyline class="st2" points="413.44 -28.38 454.63 -28.38 454.63 5.67 333.3 5.67 333.3 111"/>
          <polygon class="st0" points="314.09 -18.26 262.65 5.67 211.21 -18.26 262.65 -41.66 314.09 -18.26"/>
          <g>
            <polygon class="st0" points="374.75 144.77 323.32 168.71 271.88 144.77 323.32 121.38 374.75 144.77"/>
            <polygon class="st0" points="374.75 134.39 323.32 158.32 271.88 134.39 323.32 111 374.75 134.39"/>
            <polygon class="st0" points="374.75 124.36 323.32 148.29 271.88 124.36 323.32 100.97 374.75 124.36"/>
          </g>
          <polyline class="st2" points="537.35 1.23 537.35 53.32 472.9 53.32 472.9 27.28 370.16 27.28 370.16 86.9 405.82 86.9"/>
        </g>
        <g>
          <polyline class="st2" points="13.44 -28.38 54.63 -28.38 54.63 5.67 -66.7 5.67 -66.7 111"/>
          <polygon class="st0" points="188.79 -22.71 137.35 1.23 85.91 -22.71 137.35 -46.1 188.79 -22.71"/>
          <circle class="st0" cx="21.46" cy="85.33" r="15.64"/>
          <polyline class="st2" points="137.35 1.23 137.35 53.32 72.9 53.32 72.9 27.28 -29.84 27.28 -29.84 86.9 5.82 86.9"/>
        </g>
      </g>
    </pattern>
  </defs>
  <g>
    <polyline class="st2" points="-231.17 272.42 -189.98 272.42 -189.98 306.47 -311.31 306.47 -311.31 411.8"/>
    <polyline class="st2" points="-366.86 259.15 -366.86 184.8 -289.19 184.8 -289.19 272.42 -255.76 272.42"/>
    <g>
      <polygon class="st0" points="-330.52 282.54 -381.96 306.47 -433.39 282.54 -381.96 259.15 -330.52 282.54"/>
      <polygon class="st0" points="-330.52 272.15 -381.96 296.08 -433.39 272.15 -381.96 248.76 -330.52 272.15"/>
      <polygon class="st0" points="-330.52 262.12 -381.96 286.06 -433.39 262.12 -381.96 238.73 -330.52 262.12"/>
    </g>
    <g>
      <polygon class="st0" points="-269.86 445.58 -321.29 469.51 -372.73 445.58 -321.29 422.19 -269.86 445.58"/>
      <polygon class="st0" points="-269.86 435.19 -321.29 459.12 -372.73 435.19 -321.29 411.8 -269.86 435.19"/>
      <polygon class="st0" points="-269.86 425.16 -321.29 449.1 -372.73 425.16 -321.29 401.77 -269.86 425.16"/>
    </g>
    <g>
      <polygon class="st0" points="-55.82 278.09 -107.26 302.03 -158.7 278.09 -107.26 254.7 -55.82 278.09"/>
      <polygon class="st0" points="-55.82 267.71 -107.26 291.64 -158.7 267.71 -107.26 244.31 -55.82 267.71"/>
      <polygon class="st0" points="-55.82 257.68 -107.26 281.61 -158.7 257.68 -107.26 234.29 -55.82 257.68"/>
    </g>
    <circle class="st0" cx="-243.63" cy="262.98" r="15.64"/>
    <circle class="st0" cx="-223.15" cy="386.13" r="15.64"/>
    <circle class="st0" cx="-174.34" cy="212.97" r="15.64"/>
    <circle class="st0" cx="-321.29" cy="147.58" r="15.64"/>
    <polyline class="st2" points="-305.65 147.58 -158.7 147.58 -158.7 163.22 -132.54 163.22 -132.54 212.97 -158.7 212.97"/>
    <polyline class="st2" points="-107.26 302.03 -107.26 354.13 -171.71 354.13 -171.71 328.08 -274.45 328.08 -274.45 387.7 -238.79 387.7"/>
  </g>
  <rect class="st1" x="26.85" y="26.85" width="746.29" height="746.29"/>
</svg>